<svg xmlns="http://www.w3.org/2000/svg" width="452" height="552" viewBox="0 0 452 552">
<g>
<path d="M 118.50 239.36 C116.30,242.44 113.82,244.96 113.00,244.96 C110.40,244.96 102.70,239.48 97.44,233.89 C92.20,228.31 86.66,218.03 85.46,211.65 C84.72,207.71 83.48,206.92 82.56,209.80 C81.66,212.63 74.85,218.62 71.10,219.87 C58.17,224.17 43.99,213.77 44.02,200.00 C44.02,196.29 48.36,187.65 51.43,185.23 C52.91,184.07 56.14,182.35 58.62,181.40 C62.46,179.93 63.86,179.86 68.25,180.87 C74.43,182.29 79.55,185.99 81.75,190.60 C82.64,192.47 83.70,194.00 84.10,194.00 C84.50,194.00 85.14,192.09 85.53,189.75 C86.57,183.55 91.81,173.43 96.92,167.74 C108.01,155.40 124.80,149.42 141.18,151.96 C145.04,152.56 149.61,153.81 151.35,154.74 C156.21,157.35 170.25,157.08 175.57,154.28 C180.72,151.57 186.65,145.05 189.21,139.26 L 191.20 134.77 L 195.85 139.23 C198.41,141.69 202.20,144.71 204.28,145.95 C208.68,148.57 208.61,149.54 203.52,157.53 C192.76,174.39 166.87,183.41 149.00,176.52 C137.12,171.93 127.89,172.11 119.19,177.08 C106.75,184.18 102.44,200.86 109.63,214.06 C112.69,219.68 119.77,225.80 124.26,226.70 C128.25,227.50 128.52,228.69 125.32,231.39 C123.77,232.70 120.70,236.29 118.50,239.36 ZM 362.78 338.45 C353.90,342.15 342.04,337.72 337.53,329.00 C335.55,325.17 334.84,318.88 335.96,315.07 C336.51,313.18 336.82,311.48 336.63,311.30 C336.45,311.12 333.66,312.55 330.44,314.49 C322.55,319.25 319.22,320.15 307.50,320.72 C299.05,321.12 296.49,320.86 291.00,319.03 C282.98,316.36 272.24,309.33 268.45,304.28 C266.88,302.20 265.32,300.27 264.96,300.00 C264.61,299.73 262.43,295.85 260.12,291.39 C255.39,282.25 253.58,280.27 246.60,276.59 C240.19,273.20 229.03,272.92 223.00,276.00 C220.84,277.10 218.88,278.00 218.64,278.00 C218.39,278.00 218.01,273.84 217.78,268.75 C217.55,263.66 217.01,258.71 216.57,257.74 C214.55,253.25 234.19,250.40 246.00,253.47 C260.00,257.12 272.68,267.72 279.32,281.32 C287.01,297.09 300.70,303.45 315.24,298.01 C321.38,295.71 327.67,289.74 331.04,283.00 C334.00,277.09 334.07,267.44 331.21,260.89 L 329.19 256.28 L 337.44 255.65 C341.98,255.30 347.07,254.74 348.77,254.40 C351.65,253.82 351.92,254.02 353.01,257.64 C354.89,263.87 355.38,276.24 353.98,282.15 C353.29,285.09 351.26,290.42 349.47,294.00 L 346.23 300.50 L 354.94 300.50 C362.98,300.50 363.94,300.72 367.41,303.37 C369.48,304.94 372.02,307.63 373.06,309.33 C379.20,319.44 374.17,333.70 362.78,338.45 ZM 246.94 147.43 C240.68,149.29 228.41,149.35 221.91,147.56 C208.72,143.92 196.48,133.88 190.35,121.69 C185.20,111.42 181.77,107.51 175.21,104.41 C163.63,98.93 151.25,101.48 142.58,111.12 C134.85,119.72 132.98,131.60 137.88,141.00 L 139.83 144.73 L 132.16 145.32 C127.95,145.64 122.85,146.21 120.82,146.57 L 117.15 147.24 L 115.57 141.94 C113.65,135.45 113.56,124.25 115.38,117.41 C116.84,111.92 121.27,102.49 123.60,99.90 C124.91,98.44 124.38,98.34 117.71,98.77 C111.70,99.15 109.68,98.88 106.44,97.22 C101.22,94.54 98.39,91.37 96.53,86.10 C92.95,75.93 96.49,66.77 106.00,61.59 C114.97,56.72 125.23,59.20 131.74,67.83 C134.64,71.68 135.00,72.87 135.00,78.64 C135.00,82.21 134.51,86.05 133.90,87.18 C133.30,88.31 133.19,89.07 133.67,88.87 C134.14,88.66 137.05,87.24 140.14,85.69 C165.63,72.95 194.16,82.36 207.42,107.89 C211.58,115.90 216.85,122.36 220.92,124.45 C226.70,127.41 234.14,128.27 240.50,126.72 C243.80,125.92 247.22,124.96 248.10,124.58 C249.45,124.01 249.80,125.03 250.34,131.20 C250.70,135.22 251.27,140.15 251.61,142.18 L 252.24 145.85 ZM 311.72 216.57 C311.60,216.66 306.40,216.97 300.17,217.25 C292.22,217.61 288.73,217.43 288.45,216.63 C285.81,209.09 285.31,196.14 287.37,188.50 C291.09,174.70 301.65,162.24 315.07,155.81 C319.59,153.64 323.97,150.66 325.96,148.39 C336.06,136.89 336.14,121.93 326.15,110.82 C318.33,102.12 307.20,99.15 296.51,102.91 C293.24,104.06 290.51,105.00 290.43,105.00 C290.35,105.00 290.02,101.74 289.68,97.75 C289.35,93.76 288.79,88.90 288.44,86.94 C287.81,83.44 287.87,83.35 292.15,82.06 C303.98,78.49 316.38,79.83 328.33,85.97 C332.64,88.19 336.34,90.00 336.56,90.00 C336.77,90.00 336.51,88.85 335.98,87.43 C333.19,80.10 336.34,70.28 343.28,64.66 C346.11,62.37 348.28,61.56 352.52,61.21 C366.72,60.03 376.92,70.79 374.68,84.60 C372.87,95.73 360.18,103.52 349.55,100.02 C347.52,99.35 345.66,99.00 345.42,99.25 C345.17,99.50 346.52,102.29 348.42,105.44 C352.27,111.82 355.00,122.12 355.00,130.20 C355.00,136.29 352.31,146.52 348.99,153.03 C345.38,160.09 334.68,169.91 325.74,174.36 C320.64,176.89 316.60,179.79 313.97,182.77 C306.83,190.88 305.16,202.68 309.81,212.09 C310.98,214.46 311.84,216.47 311.72,216.57 ZM 125.77 342.45 C114.41,347.20 101.62,340.59 98.93,328.59 C97.35,321.50 98.69,316.45 103.62,311.00 C108.23,305.90 114.42,303.53 121.10,304.33 L 126.18 304.93 L 123.55 301.48 C118.50,294.85 114.77,284.26 114.24,275.00 C113.06,254.37 123.43,236.80 142.27,227.51 C150.69,223.36 156.81,217.64 159.60,211.32 C161.80,206.36 161.80,194.82 159.61,189.78 C158.73,187.74 158.00,185.89 158.00,185.68 C158.00,185.46 161.26,185.02 165.25,184.68 C169.24,184.35 174.15,183.78 176.17,183.42 C179.75,182.78 179.87,182.85 180.94,186.63 C187.56,209.92 176.65,233.99 154.46,245.02 C145.65,249.40 141.54,253.04 138.21,259.41 C132.85,269.66 135.28,284.27 143.66,292.19 C151.35,299.46 163.25,301.80 173.24,298.00 C176.13,296.90 178.55,296.00 178.60,296.00 C178.74,296.00 180.13,311.64 180.34,315.48 C180.49,318.27 180.18,318.53 175.50,319.63 C164.34,322.26 150.78,320.76 141.24,315.87 C136.35,313.35 135.54,313.65 136.97,317.43 C140.60,326.96 135.48,338.40 125.77,342.45 ZM 279.00 264.46 C279.00,266.84 278.00,266.31 270.91,260.19 C267.29,257.06 263.47,254.00 262.41,253.39 C260.58,252.33 260.57,252.13 262.20,248.71 C267.29,238.02 280.10,227.66 292.18,224.44 C300.86,222.13 313.56,222.57 322.15,225.49 C332.58,229.03 339.91,228.88 347.74,224.97 C354.50,221.60 358.33,217.28 361.14,209.87 C366.80,194.97 357.95,178.48 341.64,173.54 C340.02,173.05 340.29,172.48 343.74,169.13 C345.92,167.02 349.14,163.20 350.90,160.64 C352.66,158.09 354.72,156.00 355.48,156.00 C357.87,156.00 364.08,160.29 369.98,166.02 C377.82,173.63 382.66,183.62 384.14,195.22 L 385.26 203.94 L 387.22 201.44 C388.30,200.07 390.93,198.06 393.05,196.97 C410.07,188.29 426.35,210.42 413.19,224.34 C407.38,230.48 399.48,231.80 392.79,227.74 C388.58,225.19 384.00,219.50 384.00,216.81 C384.00,213.40 382.50,215.06 379.50,221.78 C373.57,235.06 359.03,246.42 344.50,249.11 C336.05,250.68 324.86,249.62 316.50,246.45 C310.62,244.22 308.49,243.88 303.17,244.37 C296.41,244.98 291.85,247.14 286.16,252.41 C282.67,255.64 279.00,261.82 279.00,264.46 Z" fill="rgb(24,122,176)"/>
<path d="M 361.50 457.75 L 361.50 484.50 L 352.50 484.75 C344.88,484.96 343.12,484.70 341.00,483.06 L 338.50 481.12 L 338.20 442.81 C338.04,421.74 338.16,403.50 338.47,402.27 C339.39,398.61 344.54,396.60 353.00,396.60 C361.61,396.60 365.57,398.22 369.31,403.25 C370.64,405.04 376.40,416.31 382.11,428.29 L 392.50 450.09 L 392.77 423.66 C392.79,421.39 392.81,419.30 392.82,417.39 C392.94,402.83 392.97,398.12 395.18,396.63 C396.23,395.93 397.78,395.95 400.06,395.99 C400.69,396.00 401.38,396.02 402.12,396.01 C410.00,395.99 413.04,397.02 415.10,400.40 C416.87,403.30 416.99,405.99 417.00,442.10 C417.00,445.85 417.01,449.27 417.02,452.39 C417.08,473.94 417.10,481.16 413.73,483.51 C412.03,484.69 409.46,484.63 405.61,484.55 C404.51,484.53 403.29,484.50 401.96,484.50 C391.30,484.50 391.08,484.45 388.01,481.51 C385.18,478.80 371.67,452.59 364.94,436.77 C363.60,433.61 362.27,431.03 362.00,431.02 C361.73,431.01 361.50,443.04 361.50,457.75 ZM 98.19 484.97 C93.90,486.15 91.60,486.16 87.64,484.97 C83.30,483.67 81.63,481.72 73.42,468.34 C66.13,456.46 65.72,456.00 62.45,456.00 L 59.05 456.00 L 58.78 470.25 L 58.50 484.50 L 49.25 484.79 C48.81,484.80 48.38,484.82 47.96,484.83 C42.90,485.00 39.55,485.11 37.33,483.58 C32.99,480.58 32.99,471.28 33.00,443.76 C33.00,442.59 33.00,441.40 33.00,440.17 C33.00,438.41 33.00,436.73 33.00,435.12 C32.99,409.72 32.98,402.94 36.33,400.10 C37.75,398.88 39.79,398.38 42.70,397.46 C47.19,396.03 51.79,395.60 63.00,395.56 C75.79,395.51 78.21,395.77 83.50,397.79 C97.33,403.08 103.17,410.64 103.83,424.09 C104.32,434.14 101.82,440.15 94.38,446.85 L 89.02 451.67 L 92.76 456.02 C99.58,463.98 107.00,474.47 107.00,476.17 C107.00,478.98 102.09,483.88 98.19,484.97 ZM 301.31 485.57 C286.44,488.41 271.69,486.57 259.97,480.42 C252.03,476.24 247.32,471.37 242.67,462.50 C239.56,456.55 239.53,456.37 239.51,441.50 L 239.50 426.50 L 242.85 420.09 C252.15,402.26 269.26,393.91 293.62,395.30 C310.56,396.27 320.38,404.27 317.04,414.38 C316.43,416.24 315.05,418.55 313.98,419.52 C312.11,421.21 311.79,421.18 306.13,418.64 C284.85,409.09 264.92,419.53 264.70,440.34 C264.58,451.98 268.39,459.78 276.16,463.78 C281.80,466.68 291.38,467.70 295.00,465.77 C297.27,464.56 297.50,463.85 297.50,457.97 L 297.50 451.50 L 290.00 451.22 C280.99,450.88 280.00,449.96 280.00,441.98 C280.00,437.37 280.42,435.95 282.34,434.15 C284.58,432.04 285.37,431.96 300.99,432.22 L 317.29 432.50 L 319.39 435.33 C321.39,438.02 321.48,439.14 321.18,456.79 C321.00,467.03 320.42,476.22 319.89,477.21 C318.39,480.01 309.54,483.99 301.31,485.57 ZM 238.77 238.82 C237.68,243.00 235.39,242.86 233.56,238.50 C231.77,234.21 230.99,234.14 228.75,238.09 C226.66,241.76 224.63,241.46 224.17,237.42 C223.68,233.02 222.37,232.31 219.59,234.92 C216.42,237.89 214.61,236.79 215.34,232.32 C215.76,229.72 215.50,228.74 214.26,228.27 C213.36,227.92 212.44,228.17 212.23,228.82 C212.01,229.47 210.75,230.00 209.42,230.00 C207.56,230.00 207.00,229.47 207.00,227.70 C207.00,226.43 207.50,224.90 208.11,224.29 C210.03,222.37 208.09,220.89 204.54,221.56 C200.24,222.36 199.12,220.57 202.00,217.50 C204.66,214.67 203.91,213.00 200.00,213.00 C195.91,213.00 195.19,211.06 198.34,208.55 C201.78,205.80 201.70,204.44 198.00,203.15 C196.35,202.57 195.00,201.45 195.00,200.65 C195.00,199.85 196.35,198.73 198.00,198.15 C201.68,196.87 201.86,194.71 198.43,193.15 C194.57,191.39 195.61,188.58 200.26,188.19 C204.51,187.84 204.89,186.89 201.94,183.94 C199.08,181.08 200.00,179.50 204.50,179.50 C208.21,179.50 210.18,177.85 208.05,176.53 C207.47,176.17 207.00,174.78 207.00,173.44 C207.00,171.69 207.55,171.00 208.94,171.00 C210.01,171.00 211.16,171.45 211.50,172.00 C211.84,172.55 212.77,173.00 213.56,173.00 C214.57,173.00 215.00,171.82 215.00,169.06 C215.00,164.32 216.11,163.36 218.52,166.02 C219.51,167.11 221.14,168.00 222.15,168.00 C223.60,168.00 224.00,167.24 224.00,164.50 C224.00,161.77 224.40,161.00 225.84,161.00 C226.85,161.00 228.19,162.12 228.82,163.50 C230.39,166.96 232.53,166.63 233.64,162.75 C234.16,160.96 235.23,159.50 236.04,159.50 C236.84,159.50 237.93,160.96 238.46,162.75 C239.60,166.64 241.19,166.88 243.41,163.50 C245.71,159.99 248.00,160.25 248.00,164.03 C248.00,167.93 250.41,168.90 253.32,166.17 C256.50,163.18 258.34,164.67 257.43,169.51 C256.75,173.17 256.81,173.28 259.11,172.57 C265.31,170.67 266.00,170.69 266.00,172.82 C266.00,173.96 265.55,175.16 265.00,175.50 C264.45,175.84 264.00,177.03 264.00,178.15 C264.00,179.96 264.43,180.10 268.00,179.50 C271.54,178.90 272.00,179.05 272.00,180.79 C272.00,181.87 271.33,183.32 270.50,184.00 C267.98,186.09 268.71,188.00 272.03,188.00 C276.36,188.00 277.01,190.62 273.39,193.52 C270.36,195.96 270.72,197.48 274.49,198.16 C277.83,198.77 277.57,201.91 274.08,203.12 C270.34,204.43 270.11,206.64 273.54,208.20 C277.04,209.80 276.31,212.42 272.24,212.81 C268.77,213.15 268.02,214.94 270.50,217.00 C271.33,217.68 272.00,219.15 272.00,220.25 C272.00,222.02 271.52,222.20 268.00,221.73 C263.44,221.12 262.07,222.32 264.40,224.89 C266.83,227.57 266.43,230.00 263.56,230.00 C262.22,230.00 260.84,229.55 260.50,229.00 C260.16,228.45 259.19,228.00 258.35,228.00 C257.13,228.00 256.96,228.78 257.48,231.87 C258.27,236.53 256.00,238.20 253.25,234.98 C250.47,231.73 248.17,232.44 247.81,236.67 C247.41,241.40 245.55,241.97 243.50,238.00 C241.55,234.23 239.88,234.52 238.77,238.82 ZM 181.55 482.55 L 179.09 485.00 L 154.80 485.00 C132.64,484.99 130.22,484.82 127.37,483.08 C125.92,482.20 124.79,481.56 123.93,480.68 C121.00,477.68 121.00,471.82 121.00,443.55 C121.00,442.62 121.00,441.66 121.00,440.68 L 121.00 404.80 L 124.30 401.50 C128.57,397.23 132.10,396.81 160.00,397.20 L 181.50 397.50 L 182.90 401.55 C184.43,405.97 183.87,411.42 181.57,414.58 C180.30,416.31 178.45,416.55 162.83,417.00 L 145.50 417.50 L 145.50 430.50 L 178.50 431.50 L 179.39 436.11 C180.47,441.71 179.69,445.28 176.80,447.97 C174.82,449.82 173.31,450.00 159.81,450.00 L 145.00 450.00 L 145.00 465.00 L 182.05 465.00 L 183.02 467.57 C183.56,468.98 184.00,472.37 184.00,475.11 C184.00,479.07 183.49,480.60 181.55,482.55 ZM 224.91 229.63 C226.88,230.33 232.12,230.93 236.55,230.96 C243.24,230.99 245.48,230.57 249.74,228.44 C255.76,225.44 260.93,220.05 264.46,213.07 C268.27,205.56 268.08,195.48 263.97,187.26 C253.34,165.97 226.74,162.86 212.03,181.17 C209.54,184.28 206.94,188.65 206.25,190.89 C204.66,196.07 204.64,205.30 206.21,209.93 C208.96,218.06 217.40,226.94 224.91,229.63 ZM 223.76 443.71 L 223.50 484.50 L 214.50 484.74 C213.89,484.76 213.31,484.77 212.75,484.79 C208.30,484.93 205.28,485.02 203.25,483.66 C198.98,480.81 198.98,471.57 199.00,442.98 C199.00,441.26 199.00,439.47 199.00,437.61 C199.00,408.64 199.31,397.93 200.16,397.40 C200.81,397.00 204.55,396.47 208.48,396.22 C216.25,395.72 221.01,397.28 222.98,400.97 C223.67,402.25 223.93,416.86 223.76,443.71 ZM 243.07 223.00 C227.48,227.33 212.96,216.30 213.02,200.17 C213.07,189.11 220.70,180.20 232.16,177.81 C240.91,175.98 248.87,179.22 255.32,187.24 C257.95,190.51 258.39,191.95 258.78,198.80 C259.16,205.34 258.89,207.29 257.15,210.70 C254.57,215.77 247.79,221.69 243.07,223.00 ZM 58.00 426.61 L 58.00 437.00 L 65.10 437.00 C71.84,437.00 72.37,436.83 75.60,433.60 C78.32,430.88 79.00,429.41 79.00,426.23 C79.00,419.27 73.46,415.02 64.33,415.01 C58.13,414.99 58.00,415.22 58.00,426.61 ZM 37.00 509.50 C37.00,511.94 36.55,513.00 35.50,513.00 C34.28,513.00 34.00,511.34 34.00,504.07 C34.00,494.03 34.69,493.16 41.63,494.46 C46.55,495.38 48.46,501.63 44.60,504.20 C43.89,504.67 43.98,506.05 44.87,508.52 C45.59,510.52 45.92,512.41 45.60,512.74 C44.78,513.55 41.18,510.13 40.46,507.87 C39.40,504.54 37.00,505.67 37.00,509.50 ZM 281.43 516.43 C279.85,518.01 274.91,518.58 273.67,517.33 C272.32,515.98 273.06,515.00 275.44,515.00 C276.78,515.00 278.16,514.55 278.50,514.00 C278.84,513.45 278.22,513.00 277.13,513.00 C274.02,513.00 272.00,510.24 272.00,505.99 C272.00,501.20 274.40,499.21 279.44,499.80 L 283.00 500.22 L 283.00 507.54 C283.00,512.86 282.57,515.29 281.43,516.43 ZM 250.00 538.38 C250.00,542.71 249.66,544.00 248.50,544.00 C247.28,544.00 247.00,542.33 247.00,534.93 C247.00,526.10 247.06,525.87 249.25,526.18 C250.85,526.41 252.22,528.03 253.99,531.75 C255.36,534.64 256.82,537.00 257.24,537.00 C257.66,537.00 258.00,534.53 258.00,531.50 C258.00,527.28 258.35,526.00 259.50,526.00 C260.72,526.00 261.00,527.67 261.00,535.00 C261.00,543.67 260.92,544.00 258.75,543.99 C257.04,543.98 256.02,542.88 254.50,539.41 C251.29,532.08 250.00,531.78 250.00,538.38 ZM 376.96 547.07 C375.66,549.50 369.00,549.86 369.00,547.50 C369.00,546.58 369.94,546.00 371.44,546.00 C375.17,546.00 375.47,544.17 371.80,543.81 C369.14,543.56 368.40,542.94 367.67,540.37 C367.04,538.17 367.18,536.38 368.15,534.37 C369.29,531.97 370.22,531.45 373.76,531.19 L 378.00 530.89 L 378.00 538.01 C378.00,541.93 377.53,546.00 376.96,547.07 ZM 181.82 515.17 C181.49,517.43 179.88,518.55 178.69,517.35 C178.31,516.98 178.00,512.92 178.00,508.33 L 178.00 500.00 L 182.30 500.00 C187.57,500.00 189.00,501.30 189.00,506.13 C189.00,510.18 186.94,513.00 184.00,513.00 C182.85,513.00 182.02,513.84 181.82,515.17 ZM 152.73 511.31 C152.14,513.11 141.12,513.47 140.44,511.71 C140.15,510.95 140.04,506.76 140.21,502.41 L 140.50 494.50 L 146.50 494.50 C151.17,494.50 152.50,494.83 152.50,496.00 C152.50,497.05 151.22,497.59 148.25,497.81 C144.81,498.06 144.00,498.49 144.00,500.06 C144.00,501.62 144.70,502.00 147.57,502.00 C150.44,502.00 151.08,502.35 150.82,503.75 C150.60,504.91 149.37,505.61 147.18,505.82 C144.72,506.05 143.96,506.56 144.20,507.82 C144.43,509.02 145.74,509.59 148.82,509.81 C151.60,510.01 152.99,510.54 152.73,511.31 ZM 236.00 535.00 L 236.00 544.00 L 231.54 544.00 C226.64,544.00 225.00,542.37 225.00,537.50 C225.00,533.24 226.73,531.00 230.04,531.00 C232.53,531.00 233.00,530.60 233.00,528.50 C233.00,526.94 233.57,526.00 234.50,526.00 C235.72,526.00 236.00,527.67 236.00,535.00 ZM 159.20 508.25 C158.98,511.58 158.46,513.00 157.45,513.00 C156.33,513.00 156.00,511.50 156.00,506.51 L 156.00 500.02 L 164.75 500.26 L 173.50 500.50 L 174.39 504.11 C175.43,508.33 174.46,513.32 172.71,512.74 C172.05,512.52 171.36,510.21 171.19,507.61 C170.94,503.79 170.56,502.94 169.19,503.20 C168.00,503.42 167.35,504.84 167.00,508.01 C166.36,513.80 164.64,513.79 164.00,508.00 C163.59,504.33 163.13,503.50 161.50,503.50 C159.82,503.50 159.45,504.27 159.20,508.25 ZM 325.79 503.75 L 325.50 512.50 L 321.87 512.80 C317.19,513.19 315.00,511.04 315.00,506.05 C315.00,501.87 316.21,500.37 320.00,499.85 C321.70,499.61 322.60,498.78 322.82,497.25 C323.00,496.01 323.80,495.00 324.61,495.00 C325.81,495.00 326.03,496.59 325.79,503.75 ZM 116.43 542.43 C115.56,543.29 113.35,544.00 111.50,544.00 C106.55,544.00 105.00,541.87 105.00,535.08 C105.00,528.43 106.79,526.00 111.67,526.00 C114.35,526.00 118.00,528.50 118.00,530.33 C118.00,531.40 115.14,531.10 113.07,529.81 C111.57,528.88 110.82,528.90 109.58,529.93 C106.24,532.70 108.67,542.11 112.36,540.69 C114.13,540.01 114.65,537.00 113.00,537.00 C112.45,537.00 112.00,536.33 112.00,535.50 C117.75,534.00 118.00,534.29 118.00,537.43 C118.00,539.31 117.29,541.56 116.43,542.43 ZM 365.50 503.73 L 365.50 512.46 L 361.83 512.74 C357.24,513.09 355.00,511.02 355.00,506.43 C355.00,502.31 357.94,498.91 360.85,499.67 C362.46,500.09 362.91,499.64 363.17,497.35 C363.35,495.78 363.95,494.61 364.50,494.75 C365.07,494.89 365.50,498.74 365.50,503.73 ZM 153.22 540.21 C151.89,545.38 149.53,544.91 147.63,539.11 C145.60,532.90 145.58,531.00 147.52,531.00 C148.42,531.00 149.30,532.25 149.66,534.04 C150.35,537.51 152.18,537.49 153.00,534.00 C153.87,530.30 155.57,530.59 157.17,534.72 L 158.63 538.50 L 159.89 534.75 C161.15,531.02 164.77,529.13 163.73,532.75 C163.45,533.71 162.63,536.64 161.90,539.25 C160.34,544.89 157.55,545.80 156.50,541.01 C155.56,536.74 154.21,536.41 153.22,540.21 ZM 59.44 510.78 C56.26,515.32 49.00,512.05 49.00,506.07 C49.00,504.10 49.86,502.47 51.63,501.07 C54.93,498.48 56.47,498.47 59.00,501.00 C61.39,503.39 61.59,507.71 59.44,510.78 ZM 294.00 541.00 C293.32,542.65 292.37,544.00 291.90,544.00 C290.67,544.00 288.37,539.09 287.59,534.75 C287.04,531.74 287.21,531.00 288.45,531.00 C289.30,531.00 290.00,531.42 290.00,531.93 C290.00,532.45 290.50,534.14 291.12,535.68 L 292.23 538.50 L 293.46 535.00 C294.99,530.60 297.11,530.50 298.22,534.79 C299.22,538.62 300.49,538.30 301.35,534.02 C301.72,532.17 302.57,531.00 303.55,531.00 C305.36,531.00 304.93,534.54 302.38,540.64 C300.64,544.80 299.21,544.91 297.85,541.00 C297.27,539.35 296.45,538.00 296.02,538.00 C295.59,538.00 294.68,539.35 294.00,541.00 ZM 143.33 540.37 C142.57,543.04 141.91,543.54 138.84,543.80 C134.55,544.16 132.00,542.06 132.00,538.15 C132.00,533.76 134.67,530.84 138.34,531.19 C142.40,531.59 144.65,535.72 143.33,540.37 ZM 317.39 542.42 C316.47,544.83 309.37,544.56 308.04,542.07 C306.43,539.06 306.81,534.48 308.83,532.65 C310.97,530.72 315.08,530.48 316.80,532.20 C318.06,533.46 318.43,539.73 317.39,542.42 ZM 81.80 542.80 C79.85,544.75 74.22,544.28 73.04,542.07 C70.45,537.23 73.16,531.00 77.86,531.00 C79.37,531.00 81.14,531.54 81.80,532.20 C83.35,533.75 83.35,541.25 81.80,542.80 ZM 201.43 511.43 C197.79,515.06 191.99,511.97 192.02,506.42 C192.03,502.91 192.76,501.69 195.82,500.08 C199.54,498.12 203.00,500.94 203.00,505.95 C203.00,508.17 202.32,510.54 201.43,511.43 ZM 212.56 509.50 C211.76,511.42 210.91,513.00 210.67,513.00 C209.20,513.00 206.02,505.00 206.01,501.25 C205.99,498.85 208.11,500.03 209.15,503.00 C209.73,504.65 210.57,506.00 211.02,506.00 C211.47,506.00 212.14,504.65 212.50,503.00 C212.86,501.35 213.81,500.00 214.60,500.00 C215.41,500.00 216.32,501.33 216.65,503.00 C216.98,504.65 217.60,506.00 218.03,506.00 C218.45,506.00 219.27,504.65 219.85,503.00 C220.43,501.35 221.42,500.00 222.06,500.00 C223.53,500.00 222.48,506.18 220.29,510.41 C218.83,513.24 218.68,513.29 217.38,511.50 C216.62,510.46 216.00,508.80 216.00,507.81 C216.00,504.84 214.13,505.76 212.56,509.50 ZM 179.00 539.50 C179.00,542.87 178.62,544.00 177.47,544.00 C175.26,544.00 174.87,542.24 175.20,533.92 C175.45,527.81 175.80,526.46 177.25,526.19 C178.55,525.94 179.00,526.52 179.00,528.43 C179.00,530.45 179.50,531.00 181.30,531.00 C184.83,531.00 186.00,532.91 186.00,538.70 C186.00,542.74 185.64,544.00 184.50,544.00 C183.39,544.00 183.00,542.83 183.00,539.50 C183.00,535.67 182.70,535.00 181.00,535.00 C179.30,535.00 179.00,535.67 179.00,539.50 ZM 83.00 507.65 L 83.00 513.00 L 78.62 513.00 C70.94,513.00 69.40,507.47 76.51,505.39 C80.35,504.27 80.13,503.57 75.70,502.81 C72.98,502.34 73.30,500.62 76.29,499.57 C80.55,498.07 83.00,501.02 83.00,507.65 ZM 108.00 507.65 L 108.00 513.00 L 103.70 513.00 C99.08,513.00 97.00,511.69 97.00,508.77 C97.00,506.72 99.21,505.59 104.25,505.08 C104.66,505.03 105.00,504.58 105.00,504.06 C105.00,503.55 103.54,502.99 101.75,502.81 C97.85,502.44 97.63,500.86 101.29,499.57 C105.55,498.07 108.00,501.02 108.00,507.65 ZM 394.82 509.11 C394.52,512.30 394.26,512.52 390.41,512.80 C383.49,513.31 381.34,507.43 387.75,505.54 C391.82,504.34 391.96,503.00 388.00,503.00 C384.28,503.00 383.93,500.49 387.52,499.58 C392.67,498.29 395.50,501.99 394.82,509.11 ZM 234.42 512.39 C229.43,514.31 226.00,511.68 226.00,505.95 C226.00,502.87 226.54,501.69 228.55,500.38 C230.73,498.95 231.44,498.90 233.57,500.04 C236.12,501.40 237.69,505.07 236.54,506.94 C236.18,507.52 234.31,508.00 232.38,508.00 C230.30,508.00 229.13,508.41 229.50,509.00 C229.84,509.55 231.44,510.00 233.06,510.00 C236.22,510.00 237.01,511.40 234.42,512.39 ZM 336.50 542.00 C336.15,543.10 335.22,544.00 334.43,544.00 C333.30,544.00 333.00,542.15 333.00,535.00 C333.00,527.67 333.28,526.00 334.50,526.00 C335.61,526.00 336.00,527.17 336.00,530.50 C336.00,535.60 336.44,535.88 339.68,532.83 C342.47,530.21 343.49,530.84 341.94,534.23 C341.04,536.21 341.13,537.36 342.40,539.81 C344.37,543.62 344.38,544.00 342.51,544.00 C341.69,544.00 340.45,543.10 339.77,542.00 C339.08,540.90 338.21,540.00 337.83,540.00 C337.45,540.00 336.85,540.90 336.50,542.00 ZM 215.00 539.43 C215.00,543.33 214.71,544.00 213.00,544.00 C211.21,544.00 211.00,543.33 211.00,537.50 L 211.00 531.00 L 215.30 531.00 C217.66,531.00 220.14,531.54 220.80,532.20 C222.59,533.99 222.39,544.00 220.56,544.00 C219.58,544.00 219.02,542.64 218.81,539.76 C218.58,536.66 218.03,535.43 216.75,535.19 C215.29,534.91 215.00,535.61 215.00,539.43 ZM 274.29 542.50 C274.41,543.05 272.84,543.64 270.82,543.81 C266.63,544.15 265.00,542.28 265.00,537.14 C265.00,531.39 271.32,528.77 274.44,533.22 C277.29,537.28 276.50,539.00 271.80,539.00 C267.47,539.00 267.46,540.53 271.79,541.17 C273.05,541.35 274.17,541.95 274.29,542.50 ZM 357.00 539.61 C357.00,543.33 356.70,544.00 355.00,544.00 C353.21,544.00 353.00,543.33 353.00,537.50 L 353.00 531.00 L 357.30 531.00 C359.67,531.00 362.14,531.54 362.80,532.20 C364.64,534.04 364.38,544.00 362.50,544.00 C361.40,544.00 361.00,542.85 361.00,539.67 C361.00,534.87 360.48,533.88 358.40,534.68 C357.49,535.02 357.00,536.76 357.00,539.61 ZM 380.80 506.25 L 380.50 512.50 L 376.43 512.73 C374.19,512.86 371.83,512.43 371.18,511.78 C369.40,510.00 369.63,500.00 371.45,500.00 C372.46,500.00 372.98,501.42 373.20,504.75 C373.41,508.17 373.92,509.50 375.00,509.50 C376.08,509.50 376.59,508.17 376.80,504.75 C377.06,500.77 377.43,500.00 379.10,500.00 C380.91,500.00 381.07,500.57 380.80,506.25 ZM 207.00 538.62 L 207.00 544.00 L 202.47 544.00 C197.77,544.00 196.49,542.87 197.18,539.32 C197.39,538.24 198.69,537.31 200.43,537.01 C204.56,536.29 204.99,534.00 201.00,534.00 C197.07,534.00 197.40,531.65 201.39,531.18 C205.60,530.68 207.00,532.53 207.00,538.62 ZM 304.20 508.25 C303.91,512.73 303.20,513.87 301.67,512.33 C301.30,511.97 301.00,509.09 301.00,505.94 L 301.00 500.22 L 304.75 499.75 C310.27,499.05 312.17,501.10 311.80,507.37 C311.41,513.92 309.48,514.44 308.36,508.29 C307.15,501.71 304.62,501.69 304.20,508.25 ZM 414.80 511.80 C413.52,513.08 407.79,513.45 406.67,512.33 C406.30,511.97 406.00,511.03 406.00,510.25 C406.00,509.21 406.77,509.01 408.90,509.48 C410.51,509.83 412.09,509.67 412.43,509.11 C412.78,508.54 411.52,507.81 409.53,507.44 C406.45,506.86 406.00,506.41 406.00,503.87 C406.00,500.07 409.72,498.09 413.56,499.84 C416.75,501.30 415.85,503.00 411.88,503.00 C408.17,503.00 408.89,504.53 412.98,505.35 C415.30,505.81 416.00,506.49 416.00,508.27 C416.00,509.55 415.46,511.14 414.80,511.80 ZM 261.20 508.25 C260.98,511.58 260.46,513.00 259.45,513.00 C258.34,513.00 258.00,511.52 258.00,506.61 L 258.00 500.22 L 261.56 499.80 C267.13,499.15 269.00,501.10 269.00,507.56 C269.00,511.64 268.64,513.00 267.55,513.00 C266.54,513.00 266.02,511.58 265.80,508.25 C265.55,504.27 265.18,503.50 263.50,503.50 C261.82,503.50 261.45,504.27 261.20,508.25 ZM 120.50 511.02 C120.50,513.40 115.43,513.43 113.06,511.06 C111.02,509.02 110.35,504.52 111.77,502.40 C113.07,500.44 117.02,498.87 119.04,499.51 C121.93,500.43 121.42,502.82 118.25,503.18 C115.93,503.45 115.50,503.97 115.50,506.50 C115.50,509.03 115.89,509.50 118.00,509.52 C119.53,509.53 120.50,510.11 120.50,511.02 ZM 402.27 504.25 C402.79,513.11 402.13,514.73 399.20,511.80 C397.67,510.27 397.57,495.38 399.09,494.45 C401.05,493.23 401.75,495.38 402.27,504.25 ZM 68.00 539.62 C68.00,542.68 67.58,544.00 66.62,544.00 C65.64,544.00 65.11,542.18 64.78,537.75 C64.18,529.60 65.01,526.59 67.96,526.16 C69.94,525.87 70.19,526.16 69.68,528.11 C69.35,529.37 69.52,530.92 70.05,531.57 C70.71,532.35 70.53,533.15 69.51,533.99 C68.58,534.76 68.00,536.94 68.00,539.62 ZM 129.98 511.75 C129.99,512.44 129.38,513.00 128.62,513.00 C126.42,513.00 125.32,510.86 124.70,505.37 C124.04,499.49 124.69,496.00 126.46,496.00 C128.52,496.00 129.91,500.45 129.05,504.28 C128.61,506.21 128.64,508.41 129.11,509.15 C129.58,509.89 129.98,511.06 129.98,511.75 ZM 171.42 536.42 C171.58,543.02 171.38,544.00 169.87,544.00 C167.73,544.00 167.06,542.03 166.75,534.75 C166.59,531.26 166.98,528.62 167.75,527.85 C170.00,525.60 171.23,528.49 171.42,536.42 ZM 343.93 507.46 C341.00,515.29 340.53,515.06 336.44,503.75 C335.26,500.48 335.28,500.00 336.60,500.00 C337.43,500.00 338.57,501.35 339.15,503.00 C340.30,506.31 342.00,507.02 342.00,504.20 C342.00,502.35 343.79,500.00 345.20,500.00 C346.43,500.00 346.18,501.44 343.93,507.46 ZM 68.54 505.72 C68.65,511.29 68.36,513.00 67.31,513.00 C65.69,513.00 65.30,512.11 64.10,505.58 C62.90,499.04 65.28,493.41 67.64,497.22 C68.05,497.89 68.46,501.72 68.54,505.72 ZM 243.81 508.19 C243.58,511.33 243.03,512.57 241.75,512.81 C240.23,513.10 240.00,512.29 240.00,506.57 L 240.00 500.00 L 243.00 499.85 C244.65,499.77 246.52,499.65 247.17,499.60 C249.50,499.40 249.09,502.01 246.64,502.95 C244.57,503.73 244.06,504.67 243.81,508.19 ZM 283.43 536.61 C283.59,543.13 283.39,544.00 281.80,544.00 C280.81,544.00 280.00,543.33 280.00,542.50 C280.00,541.67 279.98,540.89 279.95,540.75 C279.92,540.61 279.49,538.70 278.99,536.50 C278.36,533.73 278.45,531.66 279.28,529.75 C281.68,524.27 283.19,526.76 283.43,536.61 ZM 125.39 542.42 C125.06,543.29 124.16,544.00 123.39,544.00 C122.35,544.00 122.00,542.39 122.00,537.50 L 122.00 531.00 L 126.50 531.00 C131.43,531.00 132.43,532.50 128.50,534.00 C126.61,534.72 126.00,535.67 126.00,537.89 C126.00,539.51 125.73,541.55 125.39,542.42 ZM 90.81 539.19 C90.58,542.33 90.03,543.57 88.75,543.81 C87.23,544.10 87.00,543.29 87.00,537.57 L 87.00 531.00 L 91.50 531.00 C96.40,531.00 97.44,532.50 93.56,533.98 C91.58,534.73 91.06,535.71 90.81,539.19 ZM 89.81 508.12 C89.23,515.99 86.00,513.74 86.00,505.48 C86.00,500.66 86.95,499.64 91.39,499.64 C95.18,499.64 95.96,501.69 92.64,502.95 C90.58,503.73 90.06,504.68 89.81,508.12 ZM 325.00 540.03 C325.00,542.89 324.58,544.00 323.50,544.00 C322.32,544.00 322.00,542.61 322.00,537.50 L 322.00 531.00 L 326.50 531.00 C331.71,531.00 332.27,532.29 328.00,534.50 C325.43,535.83 325.00,536.62 325.00,540.03 ZM 296.79 503.67 C296.61,508.97 296.06,512.48 295.37,512.71 C293.92,513.19 293.41,511.62 293.10,505.74 C292.77,499.45 293.81,495.00 295.62,495.00 C296.81,495.00 297.02,496.60 296.79,503.67 ZM 254.80 506.17 C254.52,511.85 253.41,514.07 251.69,512.35 C251.31,511.98 251.00,509.04 251.00,505.83 C251.00,500.62 251.22,500.00 253.05,500.00 C254.92,500.00 255.07,500.52 254.80,506.17 ZM 332.50 506.43 C332.50,511.85 331.43,514.10 329.69,512.35 C329.31,511.98 329.00,509.01 329.00,505.76 C329.00,500.67 329.24,499.90 330.75,500.19 C332.18,500.47 332.50,501.60 332.50,506.43 ZM 352.00 506.50 C352.00,511.61 351.68,513.00 350.50,513.00 C349.32,513.00 349.00,511.61 349.00,506.50 C349.00,501.39 349.32,500.00 350.50,500.00 C351.68,500.00 352.00,501.39 352.00,506.50 ZM 350.00 537.50 C350.00,542.61 349.68,544.00 348.50,544.00 C347.32,544.00 347.00,542.61 347.00,537.50 C347.00,532.39 347.32,531.00 348.50,531.00 C349.68,531.00 350.00,532.39 350.00,537.50 ZM 319.07 508.58 C320.88,510.77 322.50,509.75 322.50,506.42 C322.50,504.17 322.04,503.50 320.51,503.50 C318.16,503.50 317.31,506.47 319.07,508.58 ZM 37.00 500.00 C37.00,501.56 37.67,502.00 40.00,502.00 C42.33,502.00 43.00,501.56 43.00,500.00 C43.00,498.44 42.33,498.00 40.00,498.00 C37.67,498.00 37.00,498.44 37.00,500.00 ZM 311.19 537.75 C310.92,540.50 311.20,541.00 313.00,541.00 C314.80,541.00 315.08,540.50 314.81,537.75 C314.61,535.67 313.96,534.50 313.00,534.50 C312.04,534.50 311.39,535.67 311.19,537.75 ZM 276.60 509.26 C277.99,510.66 280.09,508.61 279.80,506.13 C279.35,502.27 276.00,501.94 276.00,505.76 C276.00,507.36 276.27,508.94 276.60,509.26 ZM 359.42 508.64 C360.38,511.15 362.48,509.58 362.82,506.09 C363.08,503.39 362.83,502.89 361.33,503.17 C359.39,503.55 358.47,506.17 359.42,508.64 ZM 371.38 539.56 C371.69,540.35 372.65,541.00 373.53,541.00 C374.73,541.00 375.05,540.19 374.81,537.75 C374.61,535.68 373.96,534.50 373.01,534.50 C371.39,534.50 370.50,537.26 371.38,539.56 ZM 136.38 539.56 C136.69,540.35 137.65,541.00 138.53,541.00 C139.73,541.00 140.05,540.19 139.81,537.75 C139.61,535.68 138.96,534.50 138.01,534.50 C136.39,534.50 135.50,537.26 136.38,539.56 ZM 182.69 509.35 C184.07,510.74 185.50,509.26 185.50,506.43 C185.50,504.46 184.94,503.42 183.75,503.19 C182.41,502.93 182.00,503.53 182.00,505.76 C182.00,507.36 182.31,508.98 182.69,509.35 ZM 76.18 537.84 C75.91,540.61 76.17,541.11 77.68,540.82 C78.96,540.58 79.50,539.58 79.50,537.49 C79.50,533.16 76.60,533.47 76.18,537.84 ZM 229.18 537.84 C228.91,540.61 229.17,541.11 230.68,540.82 C231.96,540.58 232.50,539.58 232.50,537.49 C232.50,533.16 229.60,533.47 229.18,537.84 ZM 196.42 508.64 C197.37,511.12 199.50,509.58 199.50,506.42 C199.50,504.50 198.99,503.50 198.01,503.50 C196.37,503.50 195.51,506.27 196.42,508.64 ZM 53.42 508.64 C54.37,511.12 56.50,509.58 56.50,506.42 C56.50,504.50 55.99,503.50 55.01,503.50 C53.37,503.50 52.51,506.27 53.42,508.64 ZM 332.55 496.91 C332.18,497.51 331.49,498.00 331.00,498.00 C329.46,498.00 328.73,495.87 329.89,494.71 C331.27,493.33 333.58,495.25 332.55,496.91 ZM 200.00 540.50 C200.00,541.33 200.89,542.00 202.00,542.00 C203.11,542.00 204.00,541.33 204.00,540.50 C204.00,539.67 203.11,539.00 202.00,539.00 C200.89,539.00 200.00,539.67 200.00,540.50 ZM 229.50 504.99 C230.28,506.26 232.69,506.30 233.46,505.07 C233.77,504.56 233.55,503.84 232.97,503.48 C231.49,502.57 228.74,503.76 229.50,504.99 ZM 254.50 495.99 C254.50,496.80 253.67,497.63 252.66,497.83 C251.32,498.08 250.92,497.68 251.17,496.34 C251.59,494.15 254.50,493.84 254.50,495.99 ZM 268.25 535.75 C268.01,536.48 268.69,537.00 269.92,537.00 C271.14,537.00 272.00,536.35 272.00,535.43 C272.00,533.59 268.88,533.86 268.25,535.75 ZM 100.00 509.00 C100.00,509.55 101.12,510.00 102.50,510.00 C103.88,510.00 105.00,509.55 105.00,509.00 C105.00,508.45 103.88,508.00 102.50,508.00 C101.12,508.00 100.00,508.45 100.00,509.00 ZM 352.00 496.56 C352.00,498.21 350.42,498.49 349.50,497.00 C348.68,495.68 349.88,493.81 351.07,494.54 C351.58,494.86 352.00,495.77 352.00,496.56 ZM 387.00 509.00 C387.00,509.55 387.87,510.00 388.94,510.00 C390.01,510.00 391.16,509.55 391.50,509.00 C391.85,508.43 391.01,508.00 389.56,508.00 C388.15,508.00 387.00,508.45 387.00,509.00 ZM 75.50 509.00 C75.84,509.55 76.99,510.00 78.06,510.00 C79.13,510.00 80.00,509.55 80.00,509.00 C80.00,508.45 78.85,508.00 77.44,508.00 C75.99,508.00 75.15,508.43 75.50,509.00 ZM 350.00 527.50 C350.00,528.33 349.33,529.00 348.50,529.00 C347.67,529.00 347.00,528.33 347.00,527.50 C347.00,526.67 347.67,526.00 348.50,526.00 C349.33,526.00 350.00,526.67 350.00,527.50 ZM 384.77 542.81 C384.99,543.47 384.45,544.00 383.58,544.00 C382.71,544.00 382.00,543.29 382.00,542.42 C382.00,540.65 384.15,540.96 384.77,542.81 Z" fill="rgb(201,50,106)"/>
<path d="M 287.75 171.66 C286.45,174.49 285.64,174.51 280.51,171.81 C274.08,168.42 264.71,158.30 261.25,151.00 C255.11,138.03 254.57,125.83 259.52,111.63 C261.83,105.03 262.17,102.74 261.68,97.42 C260.62,86.16 254.42,77.84 244.21,73.99 C233.56,69.98 222.88,72.24 214.91,80.19 C212.33,82.77 209.43,86.94 208.47,89.44 C207.51,91.95 206.43,94.00 206.07,94.00 C205.71,94.00 203.41,91.95 200.96,89.44 C198.51,86.93 195.04,83.97 193.25,82.86 C189.43,80.48 189.33,79.75 192.09,74.49 C197.18,64.81 213.52,53.09 224.37,51.33 C226.37,51.00 228.00,50.35 228.00,49.87 C228.00,49.39 227.62,49.00 227.16,49.00 C225.31,49.00 218.79,42.43 217.44,39.20 C215.56,34.71 215.60,26.11 217.51,22.28 C219.40,18.49 223.57,14.27 227.38,12.30 C231.79,10.02 242.62,10.88 246.77,13.84 C252.80,18.13 255.38,22.60 255.82,29.49 C256.33,37.60 254.24,42.11 247.83,46.72 C245.17,48.63 243.00,50.33 243.00,50.51 C243.00,50.69 245.90,51.80 249.44,52.98 C270.68,60.05 283.58,78.30 283.38,101.00 C283.31,108.76 282.81,111.74 280.65,117.27 C276.17,128.72 277.46,139.00 284.40,147.41 C287.66,151.35 291.34,153.79 297.35,155.99 L 300.19 157.02 L 294.50 163.17 C291.37,166.55 288.33,170.37 287.75,171.66 ZM 244.13 388.59 C240.28,390.20 231.71,390.35 228.00,388.88 C224.43,387.46 220.14,383.13 217.80,378.58 C213.61,370.42 217.26,357.85 225.23,353.00 C227.38,351.70 227.93,350.95 226.94,350.65 C226.15,350.41 223.02,349.48 220.00,348.59 C206.80,344.69 196.40,335.60 189.68,322.08 L 185.50 313.65 L 185.58 301.58 C185.64,291.07 185.97,288.78 188.08,284.00 C191.52,276.18 191.41,266.40 187.80,259.50 C184.56,253.29 181.01,249.90 174.25,246.52 C169.54,244.16 167.46,242.00 169.91,242.00 C170.83,242.00 179.57,231.84 181.54,228.49 C182.53,226.81 182.73,226.81 186.04,228.49 C193.05,232.05 199.29,237.68 204.00,244.71 C210.18,253.93 212.00,260.22 212.00,272.43 C212.00,280.45 211.58,283.05 209.50,288.00 C205.99,296.34 206.00,306.59 209.52,313.66 C214.39,323.45 223.36,329.05 234.23,329.11 C245.10,329.17 254.12,323.67 259.00,314.01 C260.66,310.70 262.38,308.00 262.82,308.00 C263.25,308.00 265.16,309.60 267.05,311.56 C268.95,313.52 272.41,316.33 274.75,317.81 C277.08,319.29 279.00,320.86 279.00,321.29 C279.00,323.64 274.26,330.70 269.22,335.86 C263.66,341.53 255.78,346.34 247.75,348.94 C245.69,349.61 244.02,350.46 244.04,350.83 C244.06,351.20 245.84,352.72 248.00,354.21 C260.38,362.77 258.13,382.73 244.13,388.59 Z" fill="rgb(241,169,42)"/>
<path d="M 0.00 276.00 L 0.00 0.00 L 226.00 0.00 L 452.00 0.00 L 452.00 276.00 L 452.00 552.00 L 226.00 552.00 L 0.00 552.00 L 0.00 276.00 ZM 376.96 547.07 C377.53,546.00 378.00,541.93 378.00,538.01 L 378.00 530.89 L 373.76 531.19 C370.22,531.45 369.29,531.97 368.15,534.37 C367.18,536.38 367.04,538.17 367.67,540.37 C368.40,542.94 369.14,543.56 371.80,543.81 C375.47,544.17 375.17,546.00 371.44,546.00 C369.94,546.00 369.00,546.58 369.00,547.50 C369.00,549.86 375.66,549.50 376.96,547.07 ZM 68.00 539.62 C68.00,536.94 68.58,534.76 69.51,533.99 C70.53,533.15 70.71,532.35 70.05,531.57 C69.52,530.92 69.35,529.37 69.68,528.11 C70.19,526.16 69.94,525.87 67.96,526.16 C65.01,526.59 64.18,529.60 64.78,537.75 C65.11,542.18 65.64,544.00 66.62,544.00 C67.58,544.00 68.00,542.68 68.00,539.62 ZM 81.80 542.80 C83.35,541.25 83.35,533.75 81.80,532.20 C81.14,531.54 79.37,531.00 77.86,531.00 C73.16,531.00 70.45,537.23 73.04,542.07 C74.22,544.28 79.85,544.75 81.80,542.80 ZM 90.81 539.19 C91.06,535.71 91.58,534.73 93.56,533.98 C97.44,532.50 96.40,531.00 91.50,531.00 L 87.00 531.00 L 87.00 537.57 C87.00,543.29 87.23,544.10 88.75,543.81 C90.03,543.57 90.58,542.33 90.81,539.19 ZM 116.43 542.43 C117.29,541.56 118.00,539.31 118.00,537.43 C118.00,534.29 117.75,534.00 115.00,534.00 C113.00,534.00 112.00,534.50 112.00,535.50 C112.00,536.33 112.45,537.00 113.00,537.00 C114.65,537.00 114.13,540.01 112.36,540.69 C108.67,542.11 106.24,532.70 109.58,529.93 C110.82,528.90 111.57,528.88 113.07,529.81 C115.14,531.10 118.00,531.40 118.00,530.33 C118.00,528.50 114.35,526.00 111.67,526.00 C106.79,526.00 105.00,528.43 105.00,535.08 C105.00,541.87 106.55,544.00 111.50,544.00 C113.35,544.00 115.56,543.29 116.43,542.43 ZM 125.39 542.42 C125.73,541.55 126.00,539.51 126.00,537.89 C126.00,535.67 126.61,534.72 128.50,534.00 C132.43,532.50 131.43,531.00 126.50,531.00 L 122.00 531.00 L 122.00 537.50 C122.00,542.39 122.35,544.00 123.39,544.00 C124.16,544.00 125.06,543.29 125.39,542.42 ZM 143.33 540.37 C144.65,535.72 142.40,531.59 138.34,531.19 C134.67,530.84 132.00,533.76 132.00,538.15 C132.00,542.06 134.55,544.16 138.84,543.80 C141.91,543.54 142.57,543.04 143.33,540.37 ZM 153.22 540.21 C154.21,536.41 155.56,536.74 156.50,541.01 C157.55,545.80 160.34,544.89 161.90,539.25 C162.63,536.64 163.45,533.71 163.73,532.75 C164.77,529.13 161.15,531.02 159.89,534.75 L 158.63 538.50 L 157.17 534.72 C155.57,530.59 153.87,530.30 153.00,534.00 C152.18,537.49 150.35,537.51 149.66,534.04 C149.30,532.25 148.42,531.00 147.52,531.00 C145.58,531.00 145.60,532.90 147.63,539.11 C149.53,544.91 151.89,545.38 153.22,540.21 ZM 171.42 536.42 C171.23,528.49 170.00,525.60 167.75,527.85 C166.98,528.62 166.59,531.26 166.75,534.75 C167.06,542.03 167.73,544.00 169.87,544.00 C171.38,544.00 171.58,543.02 171.42,536.42 ZM 179.00 539.50 C179.00,535.67 179.30,535.00 181.00,535.00 C182.70,535.00 183.00,535.67 183.00,539.50 C183.00,542.83 183.39,544.00 184.50,544.00 C185.64,544.00 186.00,542.74 186.00,538.70 C186.00,532.91 184.83,531.00 181.30,531.00 C179.50,531.00 179.00,530.45 179.00,528.43 C179.00,526.52 178.55,525.94 177.25,526.19 C175.80,526.46 175.45,527.81 175.20,533.92 C174.87,542.24 175.26,544.00 177.47,544.00 C178.62,544.00 179.00,542.87 179.00,539.50 ZM 207.00 538.62 C207.00,532.53 205.60,530.68 201.39,531.18 C197.40,531.65 197.07,534.00 201.00,534.00 C204.99,534.00 204.56,536.29 200.43,537.01 C198.69,537.31 197.39,538.24 197.18,539.32 C196.49,542.87 197.77,544.00 202.47,544.00 L 207.00 544.00 L 207.00 538.62 ZM 215.00 539.43 C215.00,535.61 215.29,534.91 216.75,535.19 C218.03,535.43 218.58,536.66 218.81,539.76 C219.02,542.64 219.58,544.00 220.56,544.00 C222.39,544.00 222.59,533.99 220.80,532.20 C220.14,531.54 217.66,531.00 215.30,531.00 L 211.00 531.00 L 211.00 537.50 C211.00,543.33 211.21,544.00 213.00,544.00 C214.71,544.00 215.00,543.33 215.00,539.43 ZM 236.00 535.00 C236.00,527.67 235.72,526.00 234.50,526.00 C233.57,526.00 233.00,526.94 233.00,528.50 C233.00,530.60 232.53,531.00 230.04,531.00 C226.73,531.00 225.00,533.24 225.00,537.50 C225.00,542.37 226.64,544.00 231.54,544.00 L 236.00 544.00 L 236.00 535.00 ZM 250.00 538.38 C250.00,531.78 251.29,532.08 254.50,539.41 C256.02,542.88 257.04,543.98 258.75,543.99 C260.92,544.00 261.00,543.67 261.00,535.00 C261.00,527.67 260.72,526.00 259.50,526.00 C258.35,526.00 258.00,527.28 258.00,531.50 C258.00,534.53 257.66,537.00 257.24,537.00 C256.82,537.00 255.36,534.64 253.99,531.75 C252.22,528.03 250.85,526.41 249.25,526.18 C247.06,525.87 247.00,526.10 247.00,534.93 C247.00,542.33 247.28,544.00 248.50,544.00 C249.66,544.00 250.00,542.71 250.00,538.38 ZM 274.29 542.50 C274.17,541.95 273.05,541.35 271.79,541.17 C267.46,540.53 267.47,539.00 271.80,539.00 C276.50,539.00 277.29,537.28 274.44,533.22 C271.32,528.77 265.00,531.39 265.00,537.14 C265.00,542.28 266.63,544.15 270.82,543.81 C272.84,543.64 274.41,543.05 274.29,542.50 ZM 283.43 536.61 C283.19,526.76 281.68,524.27 279.28,529.75 C278.45,531.66 278.36,533.73 278.99,536.50 C279.49,538.70 279.92,540.61 279.95,540.75 C279.98,540.89 280.00,541.67 280.00,542.50 C280.00,543.33 280.81,544.00 281.80,544.00 C283.39,544.00 283.59,543.13 283.43,536.61 ZM 294.00 541.00 C294.68,539.35 295.59,538.00 296.02,538.00 C296.45,538.00 297.27,539.35 297.85,541.00 C299.21,544.91 300.64,544.80 302.38,540.64 C304.93,534.54 305.36,531.00 303.55,531.00 C302.57,531.00 301.72,532.17 301.35,534.02 C300.49,538.30 299.22,538.62 298.22,534.79 C297.11,530.50 294.99,530.60 293.46,535.00 L 292.23 538.50 L 291.12 535.68 C290.50,534.14 290.00,532.45 290.00,531.93 C290.00,531.42 289.30,531.00 288.45,531.00 C287.21,531.00 287.04,531.74 287.59,534.75 C288.37,539.09 290.67,544.00 291.90,544.00 C292.37,544.00 293.32,542.65 294.00,541.00 ZM 317.39 542.42 C318.43,539.73 318.06,533.46 316.80,532.20 C315.08,530.48 310.97,530.72 308.83,532.65 C306.81,534.48 306.43,539.06 308.04,542.07 C309.37,544.56 316.47,544.83 317.39,542.42 ZM 325.00 540.03 C325.00,536.62 325.43,535.83 328.00,534.50 C332.27,532.29 331.71,531.00 326.50,531.00 L 322.00 531.00 L 322.00 537.50 C322.00,542.61 322.32,544.00 323.50,544.00 C324.58,544.00 325.00,542.89 325.00,540.03 ZM 336.50 542.00 C336.85,540.90 337.45,540.00 337.83,540.00 C338.21,540.00 339.08,540.90 339.77,542.00 C340.45,543.10 341.69,544.00 342.51,544.00 C344.38,544.00 344.37,543.62 342.40,539.81 C341.13,537.36 341.04,536.21 341.94,534.23 C343.49,530.84 342.47,530.21 339.68,532.83 C336.44,535.88 336.00,535.60 336.00,530.50 C336.00,527.17 335.61,526.00 334.50,526.00 C333.28,526.00 333.00,527.67 333.00,535.00 C333.00,542.15 333.30,544.00 334.43,544.00 C335.22,544.00 336.15,543.10 336.50,542.00 ZM 350.00 537.50 C350.00,532.39 349.68,531.00 348.50,531.00 C347.32,531.00 347.00,532.39 347.00,537.50 C347.00,542.61 347.32,544.00 348.50,544.00 C349.68,544.00 350.00,542.61 350.00,537.50 ZM 357.00 539.61 C357.00,536.76 357.49,535.02 358.40,534.68 C360.48,533.88 361.00,534.87 361.00,539.67 C361.00,542.85 361.40,544.00 362.50,544.00 C364.38,544.00 364.64,534.04 362.80,532.20 C362.14,531.54 359.67,531.00 357.30,531.00 L 353.00 531.00 L 353.00 537.50 C353.00,543.33 353.21,544.00 355.00,544.00 C356.70,544.00 357.00,543.33 357.00,539.61 ZM 384.77 542.81 C384.15,540.96 382.00,540.65 382.00,542.42 C382.00,543.29 382.71,544.00 383.58,544.00 C384.45,544.00 384.99,543.47 384.77,542.81 ZM 350.00 527.50 C350.00,526.67 349.33,526.00 348.50,526.00 C347.67,526.00 347.00,526.67 347.00,527.50 C347.00,528.33 347.67,529.00 348.50,529.00 C349.33,529.00 350.00,528.33 350.00,527.50 ZM 181.82 515.17 C182.02,513.84 182.85,513.00 184.00,513.00 C186.94,513.00 189.00,510.18 189.00,506.13 C189.00,501.30 187.57,500.00 182.30,500.00 L 178.00 500.00 L 178.00 508.33 C178.00,512.92 178.31,516.98 178.69,517.35 C179.88,518.55 181.49,517.43 181.82,515.17 ZM 281.43 516.43 C282.57,515.29 283.00,512.86 283.00,507.54 L 283.00 500.22 L 279.44 499.80 C274.40,499.21 272.00,501.20 272.00,505.99 C272.00,510.24 274.02,513.00 277.13,513.00 C278.22,513.00 278.84,513.45 278.50,514.00 C278.16,514.55 276.78,515.00 275.44,515.00 C273.06,515.00 272.32,515.98 273.67,517.33 C274.91,518.58 279.85,518.01 281.43,516.43 ZM 37.00 509.50 C37.00,505.67 39.40,504.54 40.46,507.87 C41.18,510.13 44.78,513.55 45.60,512.74 C45.92,512.41 45.59,510.52 44.87,508.52 C43.98,506.05 43.89,504.67 44.60,504.20 C48.46,501.63 46.55,495.38 41.63,494.46 C34.69,493.16 34.00,494.03 34.00,504.07 C34.00,511.34 34.28,513.00 35.50,513.00 C36.55,513.00 37.00,511.94 37.00,509.50 ZM 59.44 510.78 C61.59,507.71 61.39,503.39 59.00,501.00 C56.47,498.47 54.93,498.48 51.63,501.07 C49.86,502.47 49.00,504.10 49.00,506.07 C49.00,512.05 56.26,515.32 59.44,510.78 ZM 68.54 505.72 C68.46,501.72 68.05,497.89 67.64,497.22 C65.28,493.41 62.90,499.04 64.10,505.58 C65.30,512.11 65.69,513.00 67.31,513.00 C68.36,513.00 68.65,511.29 68.54,505.72 ZM 83.00 507.65 C83.00,501.02 80.55,498.07 76.29,499.57 C73.30,500.62 72.98,502.34 75.70,502.81 C80.13,503.57 80.35,504.27 76.51,505.39 C69.40,507.47 70.94,513.00 78.62,513.00 L 83.00 513.00 L 83.00 507.65 ZM 89.81 508.12 C90.06,504.68 90.58,503.73 92.64,502.95 C95.96,501.69 95.18,499.64 91.39,499.64 C86.95,499.64 86.00,500.66 86.00,505.48 C86.00,513.74 89.23,515.99 89.81,508.12 ZM 108.00 507.65 C108.00,501.02 105.55,498.07 101.29,499.57 C97.63,500.86 97.85,502.44 101.75,502.81 C103.54,502.99 105.00,503.55 105.00,504.06 C105.00,504.58 104.66,505.03 104.25,505.08 C99.21,505.59 97.00,506.72 97.00,508.77 C97.00,511.69 99.08,513.00 103.70,513.00 L 108.00 513.00 L 108.00 507.65 ZM 120.50 511.02 C120.50,510.11 119.53,509.53 118.00,509.52 C115.89,509.50 115.50,509.03 115.50,506.50 C115.50,503.97 115.93,503.45 118.25,503.18 C121.42,502.82 121.93,500.43 119.04,499.51 C117.02,498.87 113.07,500.44 111.77,502.40 C110.35,504.52 111.02,509.02 113.06,511.06 C115.43,513.43 120.50,513.40 120.50,511.02 ZM 129.98 511.75 C129.98,511.06 129.58,509.89 129.11,509.15 C128.64,508.41 128.61,506.21 129.05,504.28 C129.91,500.45 128.52,496.00 126.46,496.00 C124.69,496.00 124.04,499.49 124.70,505.37 C125.32,510.86 126.42,513.00 128.62,513.00 C129.38,513.00 129.99,512.44 129.98,511.75 ZM 152.73 511.31 C152.99,510.54 151.60,510.01 148.82,509.81 C145.74,509.59 144.43,509.02 144.20,507.82 C143.96,506.56 144.72,506.05 147.18,505.82 C149.37,505.61 150.60,504.91 150.82,503.75 C151.08,502.35 150.44,502.00 147.57,502.00 C144.70,502.00 144.00,501.62 144.00,500.06 C144.00,498.49 144.81,498.06 148.25,497.81 C151.22,497.59 152.50,497.05 152.50,496.00 C152.50,494.83 151.17,494.50 146.50,494.50 L 140.50 494.50 L 140.21 502.41 C140.04,506.76 140.15,510.95 140.44,511.71 C141.12,513.47 152.14,513.11 152.73,511.31 ZM 159.20 508.25 C159.45,504.27 159.82,503.50 161.50,503.50 C163.13,503.50 163.59,504.33 164.00,508.00 C164.64,513.79 166.36,513.80 167.00,508.01 C167.35,504.84 168.00,503.42 169.19,503.20 C170.56,502.94 170.94,503.79 171.19,507.61 C171.36,510.21 172.05,512.52 172.71,512.74 C174.46,513.32 175.43,508.33 174.39,504.11 L 173.50 500.50 L 164.75 500.26 L 156.00 500.02 L 156.00 506.51 C156.00,511.50 156.33,513.00 157.45,513.00 C158.46,513.00 158.98,511.58 159.20,508.25 ZM 201.43 511.43 C202.32,510.54 203.00,508.17 203.00,505.95 C203.00,500.94 199.54,498.12 195.82,500.08 C192.76,501.69 192.03,502.91 192.02,506.42 C191.99,511.97 197.79,515.06 201.43,511.43 ZM 212.56 509.50 C214.13,505.76 216.00,504.84 216.00,507.81 C216.00,508.80 216.62,510.46 217.38,511.50 C218.68,513.29 218.83,513.24 220.29,510.41 C222.48,506.18 223.53,500.00 222.06,500.00 C221.42,500.00 220.43,501.35 219.85,503.00 C219.27,504.65 218.45,506.00 218.03,506.00 C217.60,506.00 216.98,504.65 216.65,503.00 C216.32,501.33 215.41,500.00 214.60,500.00 C213.81,500.00 212.86,501.35 212.50,503.00 C212.14,504.65 211.47,506.00 211.02,506.00 C210.57,506.00 209.73,504.65 209.15,503.00 C208.11,500.03 205.99,498.85 206.01,501.25 C206.02,505.00 209.20,513.00 210.67,513.00 C210.91,513.00 211.76,511.42 212.56,509.50 ZM 234.42 512.39 C237.01,511.40 236.22,510.00 233.06,510.00 C231.44,510.00 229.84,509.55 229.50,509.00 C229.13,508.41 230.30,508.00 232.38,508.00 C234.31,508.00 236.18,507.52 236.54,506.94 C237.69,505.07 236.12,501.40 233.57,500.04 C231.44,498.90 230.73,498.95 228.55,500.38 C226.54,501.69 226.00,502.87 226.00,505.95 C226.00,511.68 229.43,514.31 234.42,512.39 ZM 243.81 508.19 C244.06,504.67 244.57,503.73 246.64,502.95 C249.09,502.01 249.50,499.40 247.17,499.60 C246.52,499.65 244.65,499.77 243.00,499.85 L 240.00 500.00 L 240.00 506.57 C240.00,512.29 240.23,513.10 241.75,512.81 C243.03,512.57 243.58,511.33 243.81,508.19 ZM 254.80 506.17 C255.07,500.52 254.92,500.00 253.05,500.00 C251.22,500.00 251.00,500.62 251.00,505.83 C251.00,509.04 251.31,511.98 251.69,512.35 C253.41,514.07 254.52,511.85 254.80,506.17 ZM 261.20 508.25 C261.45,504.27 261.82,503.50 263.50,503.50 C265.18,503.50 265.55,504.27 265.80,508.25 C266.02,511.58 266.54,513.00 267.55,513.00 C268.64,513.00 269.00,511.64 269.00,507.56 C269.00,501.10 267.13,499.15 261.56,499.80 L 258.00 500.22 L 258.00 506.61 C258.00,511.52 258.34,513.00 259.45,513.00 C260.46,513.00 260.98,511.58 261.20,508.25 ZM 296.79 503.67 C297.02,496.60 296.81,495.00 295.62,495.00 C293.81,495.00 292.77,499.45 293.10,505.74 C293.41,511.62 293.92,513.19 295.37,512.71 C296.06,512.48 296.61,508.97 296.79,503.67 ZM 304.20 508.25 C304.62,501.69 307.15,501.71 308.36,508.29 C309.48,514.44 311.41,513.92 311.80,507.37 C312.17,501.10 310.27,499.05 304.75,499.75 L 301.00 500.22 L 301.00 505.94 C301.00,509.09 301.30,511.97 301.67,512.33 C303.20,513.87 303.91,512.73 304.20,508.25 ZM 325.79 503.75 C326.03,496.59 325.81,495.00 324.61,495.00 C323.80,495.00 323.00,496.01 322.82,497.25 C322.60,498.78 321.70,499.61 320.00,499.85 C316.21,500.37 315.00,501.87 315.00,506.05 C315.00,511.04 317.19,513.19 321.87,512.80 L 325.50 512.50 L 325.79 503.75 ZM 332.50 506.43 C332.50,501.60 332.18,500.47 330.75,500.19 C329.24,499.90 329.00,500.67 329.00,505.76 C329.00,509.01 329.31,511.98 329.69,512.35 C331.43,514.10 332.50,511.85 332.50,506.43 ZM 343.93 507.46 C346.18,501.44 346.43,500.00 345.20,500.00 C343.79,500.00 342.00,502.35 342.00,504.20 C342.00,507.02 340.30,506.31 339.15,503.00 C338.57,501.35 337.43,500.00 336.60,500.00 C335.28,500.00 335.26,500.48 336.44,503.75 C340.53,515.06 341.00,515.29 343.93,507.46 ZM 352.00 506.50 C352.00,501.39 351.68,500.00 350.50,500.00 C349.32,500.00 349.00,501.39 349.00,506.50 C349.00,511.61 349.32,513.00 350.50,513.00 C351.68,513.00 352.00,511.61 352.00,506.50 ZM 365.50 503.73 C365.50,498.74 365.07,494.89 364.50,494.75 C363.95,494.61 363.35,495.78 363.17,497.35 C362.91,499.64 362.46,500.09 360.85,499.67 C357.94,498.91 355.00,502.31 355.00,506.43 C355.00,511.02 357.24,513.09 361.83,512.74 L 365.50 512.46 L 365.50 503.73 ZM 380.80 506.25 C381.07,500.57 380.91,500.00 379.10,500.00 C377.43,500.00 377.06,500.77 376.80,504.75 C376.59,508.17 376.08,509.50 375.00,509.50 C373.92,509.50 373.41,508.17 373.20,504.75 C372.98,501.42 372.46,500.00 371.45,500.00 C369.63,500.00 369.40,510.00 371.18,511.78 C371.83,512.43 374.19,512.86 376.43,512.73 L 380.50 512.50 L 380.80 506.25 ZM 394.82 509.11 C395.50,501.99 392.67,498.29 387.52,499.58 C383.93,500.49 384.28,503.00 388.00,503.00 C391.96,503.00 391.82,504.34 387.75,505.54 C381.34,507.43 383.49,513.31 390.41,512.80 C394.26,512.52 394.52,512.30 394.82,509.11 ZM 402.27 504.25 C401.75,495.38 401.05,493.23 399.09,494.45 C397.57,495.38 397.67,510.27 399.20,511.80 C402.13,514.73 402.79,513.11 402.27,504.25 ZM 414.80 511.80 C415.46,511.14 416.00,509.55 416.00,508.27 C416.00,506.49 415.30,505.81 412.98,505.35 C408.89,504.53 408.17,503.00 411.88,503.00 C415.85,503.00 416.75,501.30 413.56,499.84 C409.72,498.09 406.00,500.07 406.00,503.87 C406.00,506.41 406.45,506.86 409.53,507.44 C411.52,507.81 412.78,508.54 412.43,509.11 C412.09,509.67 410.51,509.83 408.90,509.48 C406.77,509.01 406.00,509.21 406.00,510.25 C406.00,511.03 406.30,511.97 406.67,512.33 C407.79,513.45 413.52,513.08 414.80,511.80 ZM 254.50 495.99 C254.50,493.84 251.59,494.15 251.17,496.34 C250.92,497.68 251.32,498.08 252.66,497.83 C253.67,497.63 254.50,496.80 254.50,495.99 ZM 332.55 496.91 C333.58,495.25 331.27,493.33 329.89,494.71 C328.73,495.87 329.46,498.00 331.00,498.00 C331.49,498.00 332.18,497.51 332.55,496.91 ZM 352.00 496.56 C352.00,495.77 351.58,494.86 351.07,494.54 C349.88,493.81 348.68,495.68 349.50,497.00 C350.42,498.49 352.00,498.21 352.00,496.56 ZM 301.31 485.57 C309.54,483.99 318.39,480.01 319.89,477.21 C320.42,476.22 321.00,467.03 321.18,456.79 C321.48,439.14 321.39,438.02 319.39,435.33 L 317.29 432.50 L 300.99 432.22 C285.37,431.96 284.58,432.04 282.34,434.15 C280.42,435.95 280.00,437.37 280.00,441.98 C280.00,449.96 280.99,450.88 290.00,451.22 L 297.50 451.50 L 297.50 457.97 C297.50,463.85 297.27,464.56 295.00,465.77 C291.38,467.70 281.80,466.68 276.16,463.78 C268.39,459.78 264.58,451.98 264.70,440.34 C264.92,419.53 284.85,409.09 306.13,418.64 C311.79,421.18 312.11,421.21 313.98,419.52 C315.05,418.55 316.43,416.24 317.04,414.38 C320.38,404.27 310.56,396.27 293.62,395.30 C269.26,393.91 252.15,402.26 242.85,420.09 L 239.50 426.50 L 239.51 441.50 C239.53,456.37 239.56,456.55 242.67,462.50 C247.32,471.37 252.03,476.24 259.97,480.42 C271.69,486.57 286.44,488.41 301.31,485.57 ZM 98.19 484.97 C102.09,483.88 107.00,478.98 107.00,476.17 C107.00,474.47 99.58,463.98 92.76,456.02 L 89.02 451.67 L 94.38 446.85 C101.82,440.15 104.32,434.14 103.83,424.09 C103.17,410.64 97.33,403.08 83.50,397.79 C78.21,395.77 75.79,395.51 63.00,395.56 C51.79,395.60 47.19,396.03 42.70,397.46 C32.55,400.69 33.00,398.71 33.00,440.17 C33.00,486.56 32.55,485.31 49.25,484.79 L 58.50 484.50 L 58.78 470.25 L 59.05 456.00 L 62.45 456.00 C65.72,456.00 66.13,456.46 73.42,468.34 C81.63,481.72 83.30,483.67 87.64,484.97 C91.60,486.16 93.90,486.15 98.19,484.97 ZM 181.55 482.55 C183.49,480.60 184.00,479.07 184.00,475.11 C184.00,472.37 183.56,468.98 183.02,467.57 L 182.05 465.00 L 163.52 465.00 L 145.00 465.00 L 145.00 457.50 L 145.00 450.00 L 159.81 450.00 C173.31,450.00 174.82,449.82 176.80,447.97 C179.69,445.28 180.47,441.71 179.39,436.11 L 178.50 431.50 L 162.00 431.00 L 145.50 430.50 L 145.50 424.00 L 145.50 417.50 L 162.83 417.00 C178.45,416.55 180.30,416.31 181.57,414.58 C183.87,411.42 184.43,405.97 182.90,401.55 L 181.50 397.50 L 160.00 397.20 C132.10,396.81 128.57,397.23 124.30,401.50 L 121.00 404.80 L 121.00 440.68 C121.00,480.21 120.83,479.10 127.37,483.08 C130.22,484.82 132.64,484.99 154.80,485.00 L 179.09 485.00 L 181.55 482.55 ZM 223.76 443.71 C223.93,416.86 223.67,402.25 222.98,400.97 C221.01,397.28 216.25,395.72 208.48,396.22 C204.55,396.47 200.81,397.00 200.16,397.40 C199.31,397.93 199.00,408.64 199.00,437.61 C199.00,487.08 198.37,485.17 214.50,484.74 L 223.50 484.50 L 223.76 443.71 ZM 361.50 457.75 C361.50,443.04 361.73,431.01 362.00,431.02 C362.27,431.03 363.60,433.61 364.94,436.77 C371.67,452.59 385.18,478.80 388.01,481.51 C391.08,484.45 391.30,484.50 401.96,484.50 C418.44,484.50 417.00,488.55 417.00,442.10 C416.99,405.99 416.87,403.30 415.10,400.40 C413.04,397.02 410.00,395.99 402.12,396.01 C392.24,396.04 393.07,393.60 392.77,423.66 L 392.50 450.09 L 382.11 428.29 C376.40,416.31 370.64,405.04 369.31,403.25 C365.57,398.22 361.61,396.60 353.00,396.60 C344.54,396.60 339.39,398.61 338.47,402.27 C338.16,403.50 338.04,421.74 338.20,442.81 L 338.50 481.12 L 341.00 483.06 C343.12,484.70 344.88,484.96 352.50,484.75 L 361.50 484.50 L 361.50 457.75 ZM 244.13 388.59 C258.13,382.73 260.38,362.77 248.00,354.21 C245.84,352.72 244.06,351.20 244.04,350.83 C244.02,350.46 245.69,349.61 247.75,348.94 C255.78,346.34 263.66,341.53 269.22,335.86 C274.26,330.70 279.00,323.64 279.00,321.29 C279.00,320.86 277.08,319.29 274.75,317.81 C272.41,316.33 268.95,313.52 267.05,311.56 C265.16,309.60 263.25,308.00 262.82,308.00 C262.38,308.00 260.66,310.70 259.00,314.01 C254.12,323.67 245.10,329.17 234.23,329.11 C223.36,329.05 214.39,323.45 209.52,313.66 C206.00,306.59 205.99,296.34 209.50,288.00 C211.58,283.05 212.00,280.45 212.00,272.43 C212.00,260.22 210.18,253.93 204.00,244.71 C199.29,237.68 193.05,232.05 186.04,228.49 C182.73,226.81 182.53,226.81 181.54,228.49 C179.57,231.84 170.83,242.00 169.91,242.00 C167.46,242.00 169.54,244.16 174.25,246.52 C181.01,249.90 184.56,253.29 187.80,259.50 C191.41,266.40 191.52,276.18 188.08,284.00 C185.97,288.78 185.64,291.07 185.58,301.58 L 185.50 313.65 L 189.68 322.08 C196.40,335.60 206.80,344.69 220.00,348.59 C223.02,349.48 226.15,350.41 226.94,350.65 C227.93,350.95 227.38,351.70 225.23,353.00 C217.26,357.85 213.61,370.42 217.80,378.58 C220.14,383.13 224.43,387.46 228.00,388.88 C231.71,390.35 240.28,390.20 244.13,388.59 ZM 125.77 342.45 C135.48,338.40 140.60,326.96 136.97,317.43 C135.54,313.65 136.35,313.35 141.24,315.87 C150.78,320.76 164.34,322.26 175.50,319.63 C180.18,318.53 180.49,318.27 180.34,315.48 C180.13,311.64 178.74,296.00 178.60,296.00 C178.55,296.00 176.13,296.90 173.24,298.00 C163.25,301.80 151.35,299.46 143.66,292.19 C135.28,284.27 132.85,269.66 138.21,259.41 C141.54,253.04 145.65,249.40 154.46,245.02 C176.65,233.99 187.56,209.92 180.94,186.63 C179.87,182.85 179.75,182.78 176.17,183.42 C174.15,183.78 169.24,184.35 165.25,184.68 C161.26,185.02 158.00,185.46 158.00,185.68 C158.00,185.89 158.73,187.74 159.61,189.78 C161.80,194.82 161.80,206.36 159.60,211.32 C156.81,217.64 150.69,223.36 142.27,227.51 C123.43,236.80 113.06,254.37 114.24,275.00 C114.77,284.26 118.50,294.85 123.55,301.48 L 126.18 304.93 L 121.10 304.33 C114.42,303.53 108.23,305.90 103.62,311.00 C98.69,316.45 97.35,321.50 98.93,328.59 C101.62,340.59 114.41,347.20 125.77,342.45 ZM 362.78 338.45 C374.17,333.70 379.20,319.44 373.06,309.33 C372.02,307.63 369.48,304.94 367.41,303.37 C363.94,300.72 362.98,300.50 354.94,300.50 L 346.23 300.50 L 349.47 294.00 C351.26,290.42 353.29,285.09 353.98,282.15 C355.38,276.24 354.89,263.87 353.01,257.64 C351.92,254.02 351.65,253.82 348.77,254.40 C347.07,254.74 341.98,255.30 337.44,255.65 L 329.19 256.28 L 331.21 260.89 C334.07,267.44 334.00,277.09 331.04,283.00 C327.67,289.74 321.38,295.71 315.24,298.01 C300.70,303.45 287.01,297.09 279.32,281.32 C272.68,267.72 260.00,257.12 246.00,253.47 C234.19,250.40 214.55,253.25 216.57,257.74 C217.01,258.71 217.55,263.66 217.78,268.75 C218.01,273.84 218.39,278.00 218.64,278.00 C218.88,278.00 220.84,277.10 223.00,276.00 C229.03,272.92 240.19,273.20 246.60,276.59 C253.58,280.27 255.39,282.25 260.12,291.39 C262.43,295.85 264.61,299.73 264.96,300.00 C265.32,300.27 266.88,302.20 268.45,304.28 C272.24,309.33 282.98,316.36 291.00,319.03 C296.49,320.86 299.05,321.12 307.50,320.72 C319.22,320.15 322.55,319.25 330.44,314.49 C333.66,312.55 336.45,311.12 336.63,311.30 C336.82,311.48 336.51,313.18 335.96,315.07 C334.84,318.88 335.55,325.17 337.53,329.00 C342.04,337.72 353.90,342.15 362.78,338.45 ZM 279.00 264.46 C279.00,261.82 282.67,255.64 286.16,252.41 C291.85,247.14 296.41,244.98 303.17,244.37 C308.49,243.88 310.62,244.22 316.50,246.45 C324.86,249.62 336.05,250.68 344.50,249.11 C359.03,246.42 373.57,235.06 379.50,221.78 C382.50,215.06 384.00,213.40 384.00,216.81 C384.00,219.50 388.58,225.19 392.79,227.74 C399.48,231.80 407.38,230.48 413.19,224.34 C426.35,210.42 410.07,188.29 393.05,196.97 C390.93,198.06 388.30,200.07 387.22,201.44 L 385.26 203.94 L 384.14 195.22 C382.66,183.62 377.82,173.63 369.98,166.02 C364.08,160.29 357.87,156.00 355.48,156.00 C354.72,156.00 352.66,158.09 350.90,160.64 C349.14,163.20 345.92,167.02 343.74,169.13 C340.29,172.48 340.02,173.05 341.64,173.54 C357.95,178.48 366.80,194.97 361.14,209.87 C358.33,217.28 354.50,221.60 347.74,224.97 C339.91,228.88 332.58,229.03 322.15,225.49 C313.56,222.57 300.86,222.13 292.18,224.44 C280.10,227.66 267.29,238.02 262.20,248.71 C260.57,252.13 260.58,252.33 262.41,253.39 C263.47,254.00 267.29,257.06 270.91,260.19 C278.00,266.31 279.00,266.84 279.00,264.46 ZM 118.50 239.36 C120.70,236.29 123.77,232.70 125.32,231.39 C128.52,228.69 128.25,227.50 124.26,226.70 C119.77,225.80 112.69,219.68 109.63,214.06 C102.44,200.86 106.75,184.18 119.19,177.08 C127.89,172.11 137.12,171.93 149.00,176.52 C166.87,183.41 192.76,174.39 203.52,157.53 C208.61,149.54 208.68,148.57 204.28,145.95 C202.20,144.71 198.41,141.69 195.85,139.23 L 191.20 134.77 L 189.21 139.26 C186.65,145.05 180.72,151.57 175.57,154.28 C170.25,157.08 156.21,157.35 151.35,154.74 C149.61,153.81 145.04,152.56 141.18,151.96 C124.80,149.42 108.01,155.40 96.92,167.74 C91.81,173.43 86.57,183.55 85.53,189.75 C85.14,192.09 84.50,194.00 84.10,194.00 C83.70,194.00 82.64,192.47 81.75,190.60 C79.55,185.99 74.43,182.29 68.25,180.87 C63.86,179.86 62.46,179.93 58.62,181.40 C56.14,182.35 52.91,184.07 51.43,185.23 C48.36,187.65 44.02,196.29 44.02,200.00 C43.99,213.77 58.17,224.17 71.10,219.87 C74.85,218.62 81.66,212.63 82.56,209.80 C83.48,206.92 84.72,207.71 85.46,211.65 C86.66,218.03 92.20,228.31 97.44,233.89 C102.70,239.48 110.40,244.96 113.00,244.96 C113.82,244.96 116.30,242.44 118.50,239.36 ZM 238.77 238.82 C239.88,234.52 241.55,234.23 243.50,238.00 C245.55,241.97 247.41,241.40 247.81,236.67 C248.17,232.44 250.47,231.73 253.25,234.98 C256.00,238.20 258.27,236.53 257.48,231.87 C256.96,228.78 257.13,228.00 258.35,228.00 C259.19,228.00 260.16,228.45 260.50,229.00 C260.84,229.55 262.22,230.00 263.56,230.00 C266.43,230.00 266.83,227.57 264.40,224.89 C262.07,222.32 263.44,221.12 268.00,221.73 C271.52,222.20 272.00,222.02 272.00,220.25 C272.00,219.15 271.33,217.68 270.50,217.00 C268.02,214.94 268.77,213.15 272.24,212.81 C276.31,212.42 277.04,209.80 273.54,208.20 C270.11,206.64 270.34,204.43 274.08,203.12 C277.57,201.91 277.83,198.77 274.49,198.16 C270.72,197.48 270.36,195.96 273.39,193.52 C277.01,190.62 276.36,188.00 272.03,188.00 C268.71,188.00 267.98,186.09 270.50,184.00 C271.33,183.32 272.00,181.87 272.00,180.79 C272.00,179.05 271.54,178.90 268.00,179.50 C264.43,180.10 264.00,179.96 264.00,178.15 C264.00,177.03 264.45,175.84 265.00,175.50 C265.55,175.16 266.00,173.96 266.00,172.82 C266.00,170.69 265.31,170.67 259.11,172.57 C256.81,173.28 256.75,173.17 257.43,169.51 C258.34,164.67 256.50,163.18 253.32,166.17 C250.41,168.90 248.00,167.93 248.00,164.03 C248.00,160.25 245.71,159.99 243.41,163.50 C241.19,166.88 239.60,166.64 238.46,162.75 C237.93,160.96 236.84,159.50 236.04,159.50 C235.23,159.50 234.16,160.96 233.64,162.75 C232.53,166.63 230.39,166.96 228.82,163.50 C228.19,162.12 226.85,161.00 225.84,161.00 C224.40,161.00 224.00,161.77 224.00,164.50 C224.00,167.24 223.60,168.00 222.15,168.00 C221.14,168.00 219.51,167.11 218.52,166.02 C216.11,163.36 215.00,164.32 215.00,169.06 C215.00,171.82 214.57,173.00 213.56,173.00 C212.77,173.00 211.84,172.55 211.50,172.00 C211.16,171.45 210.01,171.00 208.94,171.00 C207.55,171.00 207.00,171.69 207.00,173.44 C207.00,174.78 207.47,176.17 208.05,176.53 C210.18,177.85 208.21,179.50 204.50,179.50 C200.00,179.50 199.08,181.08 201.94,183.94 C204.89,186.89 204.51,187.84 200.26,188.19 C195.61,188.58 194.57,191.39 198.43,193.15 C201.86,194.71 201.68,196.87 198.00,198.15 C196.35,198.73 195.00,199.85 195.00,200.65 C195.00,201.45 196.35,202.57 198.00,203.15 C201.70,204.44 201.78,205.80 198.34,208.55 C195.19,211.06 195.91,213.00 200.00,213.00 C203.91,213.00 204.66,214.67 202.00,217.50 C199.12,220.57 200.24,222.36 204.54,221.56 C208.09,220.89 210.03,222.37 208.11,224.29 C207.50,224.90 207.00,226.43 207.00,227.70 C207.00,229.47 207.56,230.00 209.42,230.00 C210.75,230.00 212.01,229.47 212.23,228.82 C212.44,228.17 213.36,227.92 214.26,228.27 C215.50,228.74 215.76,229.72 215.34,232.32 C214.61,236.79 216.42,237.89 219.59,234.92 C222.37,232.31 223.68,233.02 224.17,237.42 C224.63,241.46 226.66,241.76 228.75,238.09 C230.99,234.14 231.77,234.21 233.56,238.50 C235.39,242.86 237.68,243.00 238.77,238.82 ZM 311.72 216.57 C311.84,216.47 310.98,214.46 309.81,212.09 C305.16,202.68 306.83,190.88 313.97,182.77 C316.60,179.79 320.64,176.89 325.74,174.36 C334.68,169.91 345.38,160.09 348.99,153.03 C352.31,146.52 355.00,136.29 355.00,130.20 C355.00,122.12 352.27,111.82 348.42,105.44 C346.52,102.29 345.17,99.50 345.42,99.25 C345.66,99.00 347.52,99.35 349.55,100.02 C360.18,103.52 372.87,95.73 374.68,84.60 C376.92,70.79 366.72,60.03 352.52,61.21 C348.28,61.56 346.11,62.37 343.28,64.66 C336.34,70.28 333.19,80.10 335.98,87.43 C336.51,88.85 336.77,90.00 336.56,90.00 C336.34,90.00 332.64,88.19 328.33,85.97 C316.38,79.83 303.98,78.49 292.15,82.06 C287.87,83.35 287.81,83.44 288.44,86.94 C288.79,88.90 289.35,93.76 289.68,97.75 C290.02,101.74 290.35,105.00 290.43,105.00 C290.51,105.00 293.24,104.06 296.51,102.91 C307.20,99.15 318.33,102.12 326.15,110.82 C336.14,121.93 336.06,136.89 325.96,148.39 C323.97,150.66 319.59,153.64 315.07,155.81 C301.65,162.24 291.09,174.70 287.37,188.50 C285.31,196.14 285.81,209.09 288.45,216.63 C288.73,217.43 292.22,217.61 300.17,217.25 C306.40,216.97 311.60,216.66 311.72,216.57 ZM 287.75 171.66 C288.33,170.37 291.37,166.55 294.50,163.17 L 300.19 157.02 L 297.35 155.99 C291.34,153.79 287.66,151.35 284.40,147.41 C277.46,139.00 276.17,128.72 280.65,117.27 C282.81,111.74 283.31,108.76 283.38,101.00 C283.58,78.30 270.68,60.05 249.44,52.98 C245.90,51.80 243.00,50.69 243.00,50.51 C243.00,50.33 245.17,48.63 247.83,46.72 C254.24,42.11 256.33,37.60 255.82,29.49 C255.38,22.60 252.80,18.13 246.77,13.84 C242.62,10.88 231.79,10.02 227.38,12.30 C223.57,14.27 219.40,18.49 217.51,22.28 C215.60,26.11 215.56,34.71 217.44,39.20 C218.79,42.43 225.31,49.00 227.16,49.00 C227.62,49.00 228.00,49.39 228.00,49.87 C228.00,50.35 226.37,51.00 224.37,51.33 C213.52,53.09 197.18,64.81 192.09,74.49 C189.33,79.75 189.43,80.48 193.25,82.86 C195.04,83.97 198.51,86.93 200.96,89.44 C203.41,91.95 205.71,94.00 206.07,94.00 C206.43,94.00 207.51,91.95 208.47,89.44 C209.43,86.94 212.33,82.77 214.91,80.19 C222.88,72.24 233.56,69.98 244.21,73.99 C254.42,77.84 260.62,86.16 261.68,97.42 C262.17,102.74 261.83,105.03 259.52,111.63 C254.57,125.83 255.11,138.03 261.25,151.00 C264.71,158.30 274.08,168.42 280.51,171.81 C285.64,174.51 286.45,174.49 287.75,171.66 ZM 246.94 147.43 L 252.24 145.85 L 251.61 142.18 C251.27,140.15 250.70,135.22 250.34,131.20 C249.80,125.03 249.45,124.01 248.10,124.58 C247.22,124.96 243.80,125.92 240.50,126.72 C234.14,128.27 226.70,127.41 220.92,124.45 C216.85,122.36 211.58,115.90 207.42,107.89 C194.16,82.36 165.63,72.95 140.14,85.69 C137.05,87.24 134.14,88.66 133.67,88.87 C133.19,89.07 133.30,88.31 133.90,87.18 C134.51,86.05 135.00,82.21 135.00,78.64 C135.00,72.87 134.64,71.68 131.74,67.83 C125.23,59.20 114.97,56.72 106.00,61.59 C96.49,66.77 92.95,75.93 96.53,86.10 C98.39,91.37 101.22,94.54 106.44,97.22 C109.68,98.88 111.70,99.15 117.71,98.77 C124.38,98.34 124.91,98.44 123.60,99.90 C121.27,102.49 116.84,111.92 115.38,117.41 C113.56,124.25 113.65,135.45 115.57,141.94 L 117.15 147.24 L 120.82 146.57 C122.85,146.21 127.95,145.64 132.16,145.32 L 139.83 144.73 L 137.88 141.00 C132.98,131.60 134.85,119.72 142.58,111.12 C151.25,101.48 163.63,98.93 175.21,104.41 C181.77,107.51 185.20,111.42 190.35,121.69 C196.48,133.88 208.72,143.92 221.91,147.56 C228.41,149.35 240.68,149.29 246.94,147.43 ZM 371.38 539.56 C370.50,537.26 371.39,534.50 373.01,534.50 C373.96,534.50 374.61,535.68 374.81,537.75 C375.05,540.19 374.73,541.00 373.53,541.00 C372.65,541.00 371.69,540.35 371.38,539.56 ZM 76.18 537.84 C76.60,533.47 79.50,533.16 79.50,537.49 C79.50,539.58 78.96,540.58 77.68,540.82 C76.17,541.11 75.91,540.61 76.18,537.84 ZM 136.38 539.56 C135.50,537.26 136.39,534.50 138.01,534.50 C138.96,534.50 139.61,535.68 139.81,537.75 C140.05,540.19 139.73,541.00 138.53,541.00 C137.65,541.00 136.69,540.35 136.38,539.56 ZM 200.00 540.50 C200.00,539.67 200.89,539.00 202.00,539.00 C203.11,539.00 204.00,539.67 204.00,540.50 C204.00,541.33 203.11,542.00 202.00,542.00 C200.89,542.00 200.00,541.33 200.00,540.50 ZM 229.18 537.84 C229.60,533.47 232.50,533.16 232.50,537.49 C232.50,539.58 231.96,540.58 230.68,540.82 C229.17,541.11 228.91,540.61 229.18,537.84 ZM 268.25 535.75 C268.88,533.86 272.00,533.59 272.00,535.43 C272.00,536.35 271.14,537.00 269.92,537.00 C268.69,537.00 268.01,536.48 268.25,535.75 ZM 311.19 537.75 C311.39,535.67 312.04,534.50 313.00,534.50 C313.96,534.50 314.61,535.67 314.81,537.75 C315.08,540.50 314.80,541.00 313.00,541.00 C311.20,541.00 310.92,540.50 311.19,537.75 ZM 182.69 509.35 C182.31,508.98 182.00,507.36 182.00,505.76 C182.00,503.53 182.41,502.93 183.75,503.19 C184.94,503.42 185.50,504.46 185.50,506.43 C185.50,509.26 184.07,510.74 182.69,509.35 ZM 276.60 509.26 C276.27,508.94 276.00,507.36 276.00,505.76 C276.00,501.94 279.35,502.27 279.80,506.13 C280.09,508.61 277.99,510.66 276.60,509.26 ZM 37.00 500.00 C37.00,498.44 37.67,498.00 40.00,498.00 C42.33,498.00 43.00,498.44 43.00,500.00 C43.00,501.56 42.33,502.00 40.00,502.00 C37.67,502.00 37.00,501.56 37.00,500.00 ZM 53.42 508.64 C52.51,506.27 53.37,503.50 55.01,503.50 C55.99,503.50 56.50,504.50 56.50,506.42 C56.50,509.58 54.37,511.12 53.42,508.64 ZM 75.50 509.00 C75.15,508.43 75.99,508.00 77.44,508.00 C78.85,508.00 80.00,508.45 80.00,509.00 C80.00,509.55 79.13,510.00 78.06,510.00 C76.99,510.00 75.84,509.55 75.50,509.00 ZM 100.00 509.00 C100.00,508.45 101.12,508.00 102.50,508.00 C103.88,508.00 105.00,508.45 105.00,509.00 C105.00,509.55 103.88,510.00 102.50,510.00 C101.12,510.00 100.00,509.55 100.00,509.00 ZM 196.42 508.64 C195.51,506.27 196.37,503.50 198.01,503.50 C198.99,503.50 199.50,504.50 199.50,506.42 C199.50,509.58 197.37,511.12 196.42,508.64 ZM 229.50 504.99 C228.74,503.76 231.49,502.57 232.97,503.48 C233.55,503.84 233.77,504.56 233.46,505.07 C232.69,506.30 230.28,506.26 229.50,504.99 ZM 319.07 508.58 C317.31,506.47 318.16,503.50 320.51,503.50 C322.04,503.50 322.50,504.17 322.50,506.42 C322.50,509.75 320.88,510.77 319.07,508.58 ZM 359.42 508.64 C358.47,506.17 359.39,503.55 361.33,503.17 C362.83,502.89 363.08,503.39 362.82,506.09 C362.48,509.58 360.38,511.15 359.42,508.64 ZM 387.00 509.00 C387.00,508.45 388.15,508.00 389.56,508.00 C391.01,508.00 391.85,508.43 391.50,509.00 C391.16,509.55 390.01,510.00 388.94,510.00 C387.87,510.00 387.00,509.55 387.00,509.00 ZM 58.00 426.61 C58.00,415.22 58.13,414.99 64.33,415.01 C73.46,415.02 79.00,419.27 79.00,426.23 C79.00,429.41 78.32,430.88 75.60,433.60 C72.37,436.83 71.84,437.00 65.10,437.00 L 58.00 437.00 L 58.00 426.61 ZM 224.91 229.63 C217.40,226.94 208.96,218.06 206.21,209.93 C204.64,205.30 204.66,196.07 206.25,190.89 C206.94,188.65 209.54,184.28 212.03,181.17 C226.74,162.86 253.34,165.97 263.97,187.26 C268.08,195.48 268.27,205.56 264.46,213.07 C260.93,220.05 255.76,225.44 249.74,228.44 C245.48,230.57 243.24,230.99 236.55,230.96 C232.12,230.93 226.88,230.33 224.91,229.63 ZM 243.07 223.00 C247.79,221.69 254.57,215.77 257.15,210.70 C258.89,207.29 259.16,205.34 258.78,198.80 C258.39,191.95 257.95,190.51 255.32,187.24 C248.87,179.22 240.91,175.98 232.16,177.81 C220.70,180.20 213.07,189.11 213.02,200.17 C212.96,216.30 227.48,227.33 243.07,223.00 Z" fill="rgb(253,252,253)"/>
</g>
</svg>